<svg width="99" height="80" viewBox="0 0 99 80" fill="none" xmlns="http://www.w3.org/2000/svg">
<mask id="path-1-inside-1_19_829" fill="white">
<path d="M98.3921 53.4201C94.9354 59.3788 90.3348 64.5992 84.8529 68.7831C79.371 72.9671 73.1152 76.0327 66.4427 77.8049C59.7702 79.5771 52.8116 80.0213 45.9642 79.112C39.1168 78.2027 32.5148 75.9577 26.5351 72.5053C20.5553 69.0529 15.315 64.4607 11.1132 58.9908C6.91145 53.5208 3.83057 47.2804 2.04648 40.6257C0.262382 33.9711 -0.189985 27.0325 0.715199 20.2062C1.62038 13.3798 3.86539 6.79946 7.32205 0.840746L27.89 12.7157C25.9947 15.9829 24.7638 19.5909 24.2674 23.3338C23.7711 27.0767 24.0192 30.8812 24.9974 34.5299C25.9756 38.1787 27.6649 41.6004 29.9687 44.5996C32.2726 47.5987 35.1459 50.1167 38.4246 52.0097C41.7033 53.9026 45.3232 55.1336 49.0777 55.6321C52.8321 56.1307 56.6475 55.8872 60.3061 54.9155C63.9647 53.9437 67.3948 52.2628 70.4005 49.9688C73.4063 47.6747 75.9288 44.8123 77.8241 41.5451L98.3921 53.4201Z"/>
</mask>
<path d="M98.3921 53.4201C94.9354 59.3788 90.3348 64.5992 84.8529 68.7831C79.371 72.9671 73.1152 76.0327 66.4427 77.8049C59.7702 79.5771 52.8116 80.0213 45.9642 79.112C39.1168 78.2027 32.5148 75.9577 26.5351 72.5053C20.5553 69.0529 15.315 64.4607 11.1132 58.9908C6.91145 53.5208 3.83057 47.2804 2.04648 40.6257C0.262382 33.9711 -0.189985 27.0325 0.715199 20.2062C1.62038 13.3798 3.86539 6.79946 7.32205 0.840746L27.89 12.7157C25.9947 15.9829 24.7638 19.5909 24.2674 23.3338C23.7711 27.0767 24.0192 30.8812 24.9974 34.5299C25.9756 38.1787 27.6649 41.6004 29.9687 44.5996C32.2726 47.5987 35.1459 50.1167 38.4246 52.0097C41.7033 53.9026 45.3232 55.1336 49.0777 55.6321C52.8321 56.1307 56.6475 55.8872 60.3061 54.9155C63.9647 53.9437 67.3948 52.2628 70.4005 49.9688C73.4063 47.6747 75.9288 44.8123 77.8241 41.5451L98.3921 53.4201Z" stroke="#EC7D79" stroke-width="290" mask="url(#path-1-inside-1_19_829)"/>
</svg>
