<svg width="70" height="69" viewBox="0 0 70 69" fill="none" xmlns="http://www.w3.org/2000/svg">
<path d="M68.6587 19.4529C69.9198 18.2837 70.2187 16.3983 69.2399 15.0356C68.3839 13.8438 67.4549 12.7057 66.4575 11.6277C59.6395 4.56388 50.2216 0.562127 40.2738 0.501975C30.326 0.441827 20.6622 4.3282 13.4063 11.307C9.67476 14.6343 6.61986 18.6481 4.41688 23.118C2.21391 27.5879 0.906217 32.426 0.568848 37.3546C0.23148 42.2833 0.87107 47.2056 2.45091 51.8391C4.03076 56.4726 6.51976 60.7261 9.77515 64.3556C10.7578 65.4113 11.8085 66.4002 12.9206 67.3164C14.2006 68.371 16.0775 68.2023 17.324 67.0467L68.6587 19.4529Z" fill="#4386D1"/>
</svg>
