<svg width="24" height="25" viewBox="0 0 24 25" fill="none" xmlns="http://www.w3.org/2000/svg">
<path fill-rule="evenodd" clip-rule="evenodd" d="M12 24.5776C18.6274 24.5776 24 19.2051 24 12.5776C24 5.95022 18.6274 0.577637 12 0.577637C5.37258 0.577637 0 5.95022 0 12.5776C0 19.2051 5.37258 24.5776 12 24.5776ZM13.3472 5.67616C14.81 5.91895 16.1594 6.60103 17.2085 7.62789L15.1774 9.61596C14.5496 9.00154 13.7422 8.59342 12.867 8.44814C11.9917 8.30287 11.092 8.42764 10.2924 8.80516C9.49283 9.18269 8.83301 9.79427 8.40435 10.5552C7.97569 11.3161 7.79942 12.1887 7.89996 13.052C8.00051 13.9154 8.37289 14.7267 8.96551 15.3737C9.55813 16.0206 10.3416 16.4712 11.2075 16.6629C12.0734 16.8546 12.9787 16.7779 13.7981 16.4436C14.6175 16.1092 15.3104 15.5337 15.7807 14.7968L18 16.4436C17.2139 17.6752 16.2728 18.4799 14.9034 19.0387C13.534 19.5975 12.0209 19.7255 10.5738 19.4052C9.12672 19.0848 7.81725 18.3318 6.82682 17.2505C5.8364 16.1693 5.21406 14.8133 5.04602 13.3704C4.87799 11.9276 5.17258 10.4693 5.88898 9.19759C6.60538 7.9259 7.70812 6.90378 9.04443 6.27284C10.3807 5.6419 11.8844 5.43338 13.3472 5.67616ZM12.1516 14.5776C13.28 14.5776 14.1949 13.6822 14.1949 12.5776C14.1949 11.4731 13.28 10.5776 12.1516 10.5776C11.0231 10.5776 10.1083 11.4731 10.1083 12.5776C10.1083 13.6822 11.0231 14.5776 12.1516 14.5776Z" fill="white"/>
</svg>
