<svg width="24" height="25" viewBox="0 0 24 25" fill="none" xmlns="http://www.w3.org/2000/svg">
<path d="M9.65818 10.0867C9.65818 8.95459 8.88797 8.95459 8.88797 8.95459H8.48016H5.71924V11.3838H8.69156C9.20519 11.3836 9.65818 11.2193 9.65818 10.0867Z" fill="white"/>
<path d="M8.88822 13.0615H5.71924V15.971H8.74189C9.1966 15.958 10.0358 15.8156 10.0358 14.5568C10.0358 13.0463 8.88822 13.0615 8.88822 13.0615Z" fill="white"/>
<path d="M17.001 11.3833C15.3194 11.3833 15.085 13.0615 15.085 13.0615H18.661C18.6613 13.0615 18.6826 11.3833 17.001 11.3833Z" fill="white"/>
<path d="M12 0.577637C5.37256 0.577637 0 5.95044 0 12.5776C0 19.2048 5.37256 24.5776 12 24.5776C18.6274 24.5776 24 19.2048 24 12.5776C24 5.95044 18.6274 0.577637 12 0.577637ZM14.6163 7.66052H19.1079V9.00108H14.6163V7.66052ZM12.3462 14.6918C12.3462 18.0145 8.88823 17.9053 8.88823 17.9053H5.71924H5.62619H3.22324V7.01921H5.62619H5.71924H8.88798C10.6096 7.01921 11.9686 7.96964 11.9686 9.91763C11.9686 11.8659 10.3074 11.9894 10.3074 11.9894C12.4972 11.9894 12.3462 14.6918 12.3462 14.6918ZM17.0222 16.4088C18.8317 16.4088 18.7676 15.2376 18.7676 15.2376H20.6835C20.6835 18.3457 16.9584 18.1329 16.9584 18.1329C12.4881 18.1329 12.7756 13.9712 12.7756 13.9712C12.7756 13.9712 12.7722 9.78897 16.9579 9.78897C21.3643 9.78897 20.7473 14.5141 20.7473 14.5141H15.1064C15.1064 16.537 17.0222 16.4088 17.0222 16.4088Z" fill="white"/>
</svg>
