<svg width="24" height="25" viewBox="0 0 24 25" fill="none" xmlns="http://www.w3.org/2000/svg">
<path d="M12 0.577637C5.3736 0.577637 0 5.95123 0 12.5776C0 19.204 5.3736 24.5776 12 24.5776C18.6264 24.5776 24 19.204 24 12.5776C24 5.95123 18.6264 0.577637 12 0.577637ZM8.51294 18.7183H5.59039V9.92572H8.51294V18.7183ZM7.05176 8.7251H7.03271C6.052 8.7251 5.41772 8.04999 5.41772 7.20624C5.41772 6.34344 6.07141 5.68701 7.07117 5.68701C8.07092 5.68701 8.68616 6.34344 8.7052 7.20624C8.7052 8.04999 8.07092 8.7251 7.05176 8.7251ZM19.051 18.7183H16.1288V14.0145C16.1288 12.8323 15.7057 12.0261 14.6483 12.0261C13.8409 12.0261 13.3601 12.5699 13.1488 13.0949C13.0715 13.2828 13.0527 13.5453 13.0527 13.8081V18.7183H10.1303C10.1303 18.7183 10.1686 10.7506 10.1303 9.92572H13.0527V11.1707C13.441 10.5715 14.1359 9.71936 15.6865 9.71936C17.6093 9.71936 19.051 10.976 19.051 13.6766V18.7183Z" fill="white"/>
</svg>
