<svg width="24" height="25" viewBox="0 0 24 25" fill="none" xmlns="http://www.w3.org/2000/svg">
<path d="M11.5218 10.0978C10.3199 7.97207 9.03536 6.1795 8.77658 5.82373C6.71025 6.80976 5.16271 8.71208 4.6665 11.0013H4.73992C5.43131 11.0013 8.29609 10.9459 11.5218 10.0978Z" fill="white"/>
<path d="M16.9436 6.95733C15.6222 5.79895 13.8923 5.09528 12 5.09528C11.4181 5.09528 10.8519 5.1623 10.3076 5.28899C10.6126 5.70098 11.8964 7.47416 13.068 9.61783C15.6004 8.66029 16.7347 7.24312 16.9436 6.95733Z" fill="white"/>
<path d="M14.17 11.8688C14.221 11.9886 14.2706 12.1082 14.3195 12.2271C14.9001 12.1556 15.4796 12.1279 16.03 12.1279C17.7367 12.1279 19.1649 12.395 19.502 12.463C19.4733 10.7362 18.857 9.1499 17.844 7.89453C17.582 8.23409 16.3146 9.73547 13.6885 10.8173C13.8572 11.1634 14.019 11.515 14.17 11.8688Z" fill="white"/>
<path d="M12.5142 12.6128C12.5967 12.5863 12.6802 12.5619 12.7636 12.5374C12.5849 12.1364 12.3924 11.735 12.1901 11.3395C8.85955 12.3282 5.62698 12.4055 4.69619 12.4055C4.61026 12.4055 4.54471 12.4051 4.49953 12.4041C4.49806 12.4659 4.49634 12.5278 4.49634 12.5892C4.49658 14.4925 5.21081 16.2313 6.38516 17.5544C6.70213 17.0307 8.76404 13.8239 12.5142 12.6128Z" fill="white"/>
<path d="M12 0.577637C5.37256 0.577637 0 5.95044 0 12.5776C0 19.2048 5.37256 24.5776 12 24.5776C18.6274 24.5776 24 19.2048 24 12.5776C24 5.95044 18.6274 0.577637 12 0.577637ZM12 21.4482C7.10228 21.4482 3.11791 17.469 3.11767 12.5776C3.11816 7.6863 7.10228 3.70758 12 3.70709C16.8977 3.70758 20.8818 7.6863 20.8821 12.5776C20.8818 17.469 16.8977 21.4482 12 21.4482Z" fill="white"/>
<path d="M14.8118 13.4998C15.745 16.0739 16.1494 18.1849 16.2496 18.7619C17.8926 17.6305 19.0635 15.862 19.4021 13.8168C19.1173 13.7299 17.8904 13.3867 16.3225 13.3867C15.8449 13.3867 15.3355 13.4193 14.8118 13.4998Z" fill="white"/>
<path d="M13.3034 13.871C9.19283 15.3015 7.63719 18.1029 7.4231 18.5235C8.69098 19.5004 10.2781 20.0831 12.0002 20.0831C13.0272 20.0831 14.0066 19.8758 14.8988 19.5012C14.7785 18.8031 14.3417 16.5517 13.3118 13.8681C13.3088 13.8691 13.3061 13.8701 13.3034 13.871Z" fill="white"/>
</svg>
