<svg width="25" height="27" viewBox="0 0 25 27" fill="none" xmlns="http://www.w3.org/2000/svg">
<path d="M2.74818 5.55805C3.90709 5.55805 4.84657 4.61787 4.84657 3.4581C4.84657 2.29833 3.90709 1.35815 2.74818 1.35815C1.58926 1.35815 0.64978 2.29833 0.64978 3.4581C0.64978 4.61787 1.58926 5.55805 2.74818 5.55805Z" fill="#4386D1"/>
<path fill-rule="evenodd" clip-rule="evenodd" d="M17.0829 12.0351C17.7898 12.2018 18.5141 12.2832 19.2404 12.2776C20.1668 12.2625 21.0795 12.0508 21.9181 11.6565C22.6872 13.4252 22.9318 15.3779 22.6227 17.2819C22.3137 19.1858 21.4639 20.9606 20.1748 22.3947C18.8858 23.8287 17.2118 24.8615 15.3524 25.3699C13.4931 25.8782 11.5269 25.8407 9.68827 25.2618V21.7126H4.64621C3.27145 19.9114 2.54504 17.6982 2.5848 15.4321C2.62456 13.1659 3.42815 10.9796 4.86524 9.22779C6.30233 7.47599 8.28864 6.26139 10.502 5.78098C12.7154 5.30058 15.0261 5.58255 17.0592 6.58116L17.0829 12.0351ZM12.6733 20.6597C13.6682 20.6597 14.6407 20.3644 15.468 19.8113C16.2952 19.2582 16.9399 18.472 17.3206 17.5521C17.7014 16.6323 17.801 15.6201 17.6069 14.6436C17.4128 13.6671 16.9337 12.7702 16.2302 12.0662C15.5267 11.3622 14.6304 10.8827 13.6547 10.6885C12.6789 10.4942 11.6675 10.5939 10.7483 10.9749C9.82916 11.356 9.04355 12.0012 8.49082 12.829C7.93809 13.6568 7.64307 14.6301 7.64307 15.6257C7.64307 16.9608 8.17304 18.2412 9.11639 19.1853C10.0597 20.1293 11.3392 20.6597 12.6733 20.6597Z" fill="#4EBA85"/>
<path d="M8.36994 23.0203H0V27.0072H8.36994V23.0203Z" fill="#F6C050"/>
<path d="M18.395 10.852C19.1354 11.0031 19.9005 10.9839 20.6324 10.7958C21.3643 10.6077 22.044 10.2557 22.6201 9.76638C23.1962 9.27702 23.6536 8.66308 23.958 7.97092C24.2623 7.27875 24.4056 6.52644 24.3769 5.77077C24.3903 5.10268 24.2719 4.4385 24.0287 3.81618C23.7855 3.19386 23.4221 2.6256 22.9594 2.14384C22.4966 1.66209 21.9436 1.27629 21.3318 1.00848C20.7201 0.740665 20.0616 0.596093 19.394 0.583017C19.0581 0.582364 18.7232 0.618064 18.395 0.689493V10.852Z" fill="#EC7D79"/>
</svg>
