<svg width="119" height="82" viewBox="0 0 119 82" fill="none" xmlns="http://www.w3.org/2000/svg">
<path d="M43.1829 7.91558C44.8933 7.91558 46.2798 6.52887 46.2798 4.81826C46.2798 3.10766 44.8933 1.72095 43.1829 1.72095C41.4725 1.72095 40.0859 3.10766 40.0859 4.81826C40.0859 6.52887 41.4725 7.91558 43.1829 7.91558Z" fill="white"/>
<path fill-rule="evenodd" clip-rule="evenodd" d="M64.3287 17.4691C65.375 17.7151 66.4469 17.8352 67.5216 17.8268C68.8887 17.8034 70.2355 17.4912 71.4735 16.9107C72.4491 19.1702 72.8473 21.6369 72.632 24.0887C72.4168 26.5404 71.5949 28.9 70.2405 30.9548C68.8861 33.0097 67.0417 34.6951 64.8735 35.8593C62.7054 37.0235 60.2817 37.6297 57.8208 37.6235C56.3268 37.6245 54.8412 37.398 53.4153 36.9517V31.7168H45.9827C43.9538 29.0601 42.8817 25.7958 42.9404 22.4533C42.9991 19.1108 44.1851 15.8861 46.306 13.3023C48.4269 10.7185 51.3584 8.927 54.6251 8.21843C57.8917 7.50985 61.3019 7.92574 64.3026 9.39864L64.3287 17.4691ZM57.8208 30.1899C59.2891 30.1899 60.7245 29.7545 61.9453 28.9386C63.1662 28.1228 64.1177 26.9632 64.6796 25.6064C65.2415 24.2497 65.3885 22.7569 65.1021 21.3166C64.8156 19.8763 64.1086 18.5533 63.0703 17.5149C62.0321 16.4766 60.7093 15.7694 59.2692 15.4829C57.8291 15.1964 56.3364 15.3435 54.9798 15.9054C53.6233 16.4674 52.4638 17.4191 51.6481 18.6401C50.8323 19.8611 50.3969 21.2966 50.3969 22.7651C50.3969 24.7343 51.1791 26.6228 52.5713 28.0152C53.9636 29.4077 55.8519 30.1899 57.8208 30.1899Z" fill="white"/>
<path d="M51.47 33.6709H39.1172V39.5514H51.47V33.6709Z" fill="white"/>
<path d="M66.2998 15.7239C66.7822 15.8221 67.2731 15.8718 67.7654 15.8723C69.7537 15.8333 71.6453 15.0064 73.0243 13.5732C74.4033 12.1401 75.1569 10.2179 75.1195 8.22932C75.1391 7.24175 74.9636 6.26002 74.603 5.34044C74.2424 4.42087 73.7038 3.58156 73.0182 2.87065C72.3325 2.15974 71.5132 1.59124 70.6073 1.19775C69.7014 0.804254 68.7267 0.593521 67.7392 0.577637C67.2552 0.578569 66.7726 0.631217 66.2998 0.734684V15.7239Z" fill="white"/>
<path d="M119 70.961C119 71.4476 118.856 71.9233 118.585 72.3279C118.315 72.7325 117.931 73.0478 117.481 73.2341C117.032 73.4203 116.537 73.469 116.06 73.3741C115.583 73.2791 115.144 73.0448 114.8 72.7007C114.456 72.3566 114.222 71.9182 114.127 71.441C114.032 70.9637 114.081 70.469 114.267 70.0194C114.453 69.5698 114.769 69.1856 115.173 68.9152C115.578 68.6449 116.053 68.5006 116.54 68.5006C116.863 68.4994 117.184 68.5623 117.483 68.6855C117.782 68.8087 118.053 68.9899 118.282 69.2186C118.511 69.4473 118.692 69.719 118.815 70.018C118.938 70.3171 119.001 70.6375 119 70.961Z" fill="white"/>
<path d="M8.56671 56.2767C6.29468 56.2767 4.1157 57.1793 2.50913 58.7861C0.902561 60.3929 0 62.5721 0 64.8445L0 81.5525H3.42843V71.7458C4.91196 72.8501 6.71752 73.4357 8.56671 73.4122C9.6917 73.4122 10.8057 73.1906 11.845 72.7601C12.8844 72.3295 13.8288 71.6984 14.6243 70.9028C15.4198 70.1072 16.0508 69.1627 16.4813 68.1232C16.9118 67.0837 17.1334 65.9696 17.1334 64.8445C17.1334 63.7193 16.9118 62.6052 16.4813 61.5657C16.0508 60.5262 15.4198 59.5817 14.6243 58.7861C13.8288 57.9905 12.8844 57.3594 11.845 56.9289C10.8057 56.4983 9.6917 56.2767 8.56671 56.2767ZM12.1696 68.4914C11.7029 68.9737 11.1425 69.3556 10.523 69.6136C9.90347 69.8717 9.23777 70.0005 8.56671 69.9921C7.88988 70.0047 7.21768 69.878 6.59187 69.6199C5.96607 69.3617 5.40003 68.9776 4.92891 68.4914C3.96895 67.531 3.42968 66.2286 3.42968 64.8706C3.42968 63.5126 3.96895 62.2102 4.92891 61.2498C5.39835 60.7638 5.96083 60.3773 6.58282 60.1133C7.20481 59.8493 7.87358 59.7132 8.54926 59.7132C9.22495 59.7132 9.89371 59.8493 10.5157 60.1133C11.1377 60.3773 11.7002 60.7638 12.1696 61.2498C12.6578 61.7181 13.0462 62.2802 13.3116 62.9024C13.577 63.5247 13.7138 64.1942 13.7138 64.8706C13.7138 65.5471 13.577 66.2166 13.3116 66.8388C13.0462 67.4611 12.6578 68.0232 12.1696 68.4914Z" fill="white"/>
<path d="M28.1253 73.4122C30.1282 73.4146 32.0691 72.7172 33.6125 71.4404L31.4316 68.8229C30.5105 69.6086 29.3357 70.0333 28.1253 70.0182C27.0572 70.0234 26.0139 69.6961 25.1401 69.0817C24.2664 68.4674 23.6053 67.5963 23.2487 66.5894H36.7007V64.8444C36.7374 63.6957 36.5428 62.5513 36.1285 61.4793C35.7143 60.4072 35.0888 59.4294 34.2893 58.6039C33.4898 57.7783 32.5325 57.1219 31.4744 56.6737C30.4162 56.2254 29.2788 55.9944 28.1296 55.9944C26.9805 55.9944 25.843 56.2254 24.7849 56.6737C23.7267 57.1219 22.7695 57.7783 21.97 58.6039C21.1704 59.4294 20.545 60.4072 20.1307 61.4793C19.7165 62.5513 19.5219 63.6957 19.5586 64.8444C19.5481 65.9725 19.7625 67.0913 20.1893 68.1355C20.6161 69.1798 21.2467 70.1284 22.0443 70.9261C22.8419 71.7238 23.7905 72.3545 24.8346 72.7814C25.8787 73.2082 26.9974 73.4227 28.1253 73.4122ZM28.1253 59.7055C29.1844 59.7199 30.2143 60.0554 31.0787 60.6676C31.9432 61.2798 32.6016 62.14 32.967 63.1343H23.2487C23.6162 62.1344 24.2799 61.2705 25.1513 60.6578C26.0226 60.0451 27.0601 59.7129 28.1253 59.7055Z" fill="white"/>
<path d="M63.971 73.4122C65.6653 73.4122 67.3216 72.9097 68.7304 71.9683C70.1392 71.0269 71.2372 69.6888 71.8856 68.1232C72.534 66.5577 72.7037 64.835 72.3731 63.173C72.0426 61.511 71.2267 59.9843 70.0286 58.7861C68.8305 57.5879 67.3041 56.7719 65.6423 56.4413C63.9805 56.1107 62.258 56.2804 60.6927 56.9289C59.1273 57.5773 57.7894 58.6755 56.8481 60.0845C55.9067 61.4934 55.4043 63.1499 55.4043 64.8445C55.4043 67.1168 56.3069 69.296 57.9134 70.9028C59.52 72.5096 61.699 73.4122 63.971 73.4122ZM60.3332 61.1975C61.1716 60.3593 62.2749 59.8379 63.4547 59.7224C64.6346 59.607 65.818 59.9045 66.803 60.5642C67.788 61.224 68.5136 62.2051 68.8561 63.3402C69.1985 64.4753 69.1366 65.694 68.6808 66.7886C68.225 67.8831 67.4037 68.7855 66.3568 69.342C65.31 69.8984 64.1026 70.0744 62.9405 69.8398C61.7784 69.6053 60.7337 68.9748 59.9846 68.0558C59.2355 67.1369 58.8284 65.9865 58.8327 64.8008C58.8323 64.1373 58.9648 63.4804 59.2226 62.869C59.4803 62.2576 59.8579 61.7041 60.3332 61.2411V61.1975Z" fill="white"/>
<path d="M88.406 57.9871C86.862 56.8253 84.971 56.219 83.0394 56.2665C81.1079 56.314 79.2489 57.0125 77.7639 58.2488C76.279 59.4851 75.2549 61.1867 74.8579 63.0778C74.4608 64.969 74.7139 66.9388 75.5762 68.6681C76.4386 70.3974 77.8595 71.7847 79.6089 72.6053C81.3582 73.4258 83.3333 73.6315 85.2141 73.189C87.0949 72.7465 88.7712 71.6816 89.9712 70.1671C91.1712 68.6526 91.8247 66.7772 91.8257 64.8448V48.1367H88.406V57.9871ZM86.8619 68.4569C86.0281 69.2566 84.9438 69.744 83.7923 69.8367C82.6408 69.9294 81.4925 69.6217 80.5416 68.9656C79.5906 68.3096 78.8952 67.3453 78.5729 66.2358C78.2506 65.1263 78.3211 63.9395 78.7724 62.8759C79.2238 61.8123 80.0285 60.9372 81.0504 60.3983C82.0723 59.8595 83.2489 59.6899 84.3813 59.9183C85.5138 60.1466 86.5328 60.759 87.266 61.6518C87.9993 62.5446 88.402 63.6632 88.406 64.8186C88.4172 65.5032 88.2856 66.1825 88.0198 66.8134C87.7539 67.4444 87.3596 68.013 86.8619 68.483V68.4569Z" fill="white"/>
<path d="M102.548 73.4128C104.551 73.4152 106.491 72.7178 108.035 71.441L105.845 68.8236C104.928 69.6093 103.755 70.0342 102.548 70.0188C101.479 70.0233 100.435 69.6958 99.5595 69.0817C98.6845 68.4675 98.0216 67.5969 97.6623 66.59H111.114V64.845C111.121 63.1406 110.622 61.4726 109.679 60.0525C108.737 58.6325 107.394 57.5245 105.82 56.869C104.247 56.2136 102.515 56.0403 100.843 56.3711C99.1714 56.7019 97.6355 57.522 96.4305 58.7272C95.2254 59.9324 94.4055 61.4684 94.0747 63.1404C93.7439 64.8124 93.9172 66.545 94.5726 68.1184C95.2279 69.6917 96.3358 71.0349 97.7557 71.9775C99.1755 72.9202 100.843 73.4197 102.548 73.4128ZM102.548 59.7061C103.607 59.7206 104.637 60.056 105.501 60.6683C106.365 61.2805 107.024 62.1406 107.389 63.135H97.7059C98.0712 62.1406 98.7296 61.2805 99.5941 60.6683C100.459 60.056 101.488 59.7206 102.548 59.7061Z" fill="white"/>
<path d="M51.0424 68.8058L53.2495 71.4233C52.0007 72.484 50.4745 73.1652 48.8511 73.3864C47.2277 73.6075 45.5749 73.3594 44.088 72.6713C42.601 71.9833 41.342 70.884 40.4596 69.5033C39.5773 68.1226 39.1084 66.5183 39.1084 64.8797C39.1084 63.2411 39.5773 61.6367 40.4596 60.256C41.342 58.8754 42.601 57.7761 44.088 57.088C45.5749 56.3999 47.2277 56.1518 48.8511 56.373C50.4745 56.5941 52.0007 57.2753 53.2495 58.336L51.0337 60.9535C50.4013 60.4073 49.6459 60.0227 48.8322 59.8327C48.0186 59.6427 47.1709 59.6529 46.3621 59.8626C45.5533 60.0723 44.8074 60.4751 44.1885 61.0365C43.5696 61.5979 43.0961 62.3011 42.8087 63.0857C42.5213 63.8704 42.4285 64.7131 42.5383 65.5415C42.6482 66.3699 42.9574 67.1593 43.4393 67.8419C43.9213 68.5245 44.5617 69.08 45.3055 69.4606C46.0493 69.8413 46.8744 70.0357 47.7099 70.0273C48.9312 70.0328 50.1139 69.5993 51.0424 68.8058Z" fill="white"/>
</svg>
