<svg width="194" height="48" viewBox="0 0 194 48" fill="none" xmlns="http://www.w3.org/2000/svg">
<path d="M4.82824 9.52862C6.86431 9.52862 8.51487 7.87684 8.51487 5.83926C8.51487 3.80169 6.86431 2.1499 4.82824 2.1499C2.79216 2.1499 1.1416 3.80169 1.1416 5.83926C1.1416 7.87684 2.79216 9.52862 4.82824 9.52862Z" fill="#4386D1"/>
<path fill-rule="evenodd" clip-rule="evenodd" d="M30.0128 20.9082C31.2547 21.2011 32.5273 21.3441 33.8032 21.3343C35.4308 21.3077 37.0343 20.9358 38.5076 20.2431C39.8589 23.3505 40.2886 26.7812 39.7456 30.1262C39.2026 33.4712 37.7097 36.5893 35.445 39.1088C33.1802 41.6283 30.2392 43.4427 26.9725 44.3359C23.7059 45.229 20.2515 45.1631 17.0213 44.146V37.9105H8.16294C5.74765 34.7459 4.47145 30.8577 4.5413 26.8763C4.61115 22.8949 6.02296 19.0538 8.54776 15.9761C11.0726 12.8984 14.5623 10.7645 18.4509 9.92048C22.3396 9.07647 26.3992 9.57185 29.9712 11.3263L30.0128 20.9082ZM22.2656 36.0606C24.0135 36.0606 25.7222 35.5419 27.1755 34.5701C28.6288 33.5983 29.7616 32.217 30.4304 30.601C31.0993 28.985 31.2744 27.2067 30.9334 25.4911C30.5924 23.7755 29.7507 22.1997 28.5147 20.9628C27.2788 19.726 25.7041 18.8836 23.9897 18.5424C22.2754 18.2011 20.4985 18.3763 18.8836 19.0457C17.2688 19.715 15.8886 20.8486 14.9175 22.303C13.9464 23.7574 13.4281 25.4673 13.4281 27.2165C13.4281 29.5621 14.3592 31.8116 16.0165 33.4702C17.6739 35.1288 19.9218 36.0606 22.2656 36.0606Z" fill="#4EBA85"/>
<path d="M14.705 40.2075H0V47.2121H14.705V40.2075Z" fill="#F6C050"/>
<path d="M32.3179 18.8296C33.6187 19.095 34.9628 19.0612 36.2487 18.7308C37.5346 18.4004 38.7286 17.782 39.7408 16.9222C40.7529 16.0624 41.5567 14.9838 42.0914 13.7678C42.6261 12.5517 42.8777 11.23 42.8274 9.90238C42.8508 8.72862 42.6429 7.56174 42.2156 6.46839C41.7883 5.37505 41.1499 4.37668 40.3369 3.53029C39.5239 2.68391 38.5523 2.0061 37.4775 1.53558C36.4027 1.06507 35.2458 0.811074 34.0729 0.788101C33.4829 0.786955 32.8944 0.849675 32.3179 0.975167V18.8296Z" fill="#EC7D79"/>
<path d="M194 34.5948C194 35.1749 193.828 35.7419 193.506 36.2241C193.183 36.7062 192.725 37.0819 192.19 37.3034C191.654 37.5249 191.065 37.5823 190.496 37.4684C189.928 37.3545 189.406 37.0743 188.997 36.6634C188.588 36.2525 188.31 35.7293 188.198 35.1601C188.086 34.591 188.146 34.0014 188.369 33.466C188.592 32.9307 188.969 32.4737 189.452 32.1529C189.935 31.8322 190.502 31.662 191.082 31.6641C191.466 31.6641 191.846 31.74 192.201 31.8874C192.556 32.0348 192.878 32.2508 193.149 32.5231C193.42 32.7954 193.635 33.1185 193.781 33.474C193.927 33.8295 194.001 34.2104 194 34.5948Z" fill="#1C2B32"/>
<path d="M62.5486 17.105C59.8429 17.105 57.248 18.1799 55.3338 20.0935C53.4197 22.0071 52.343 24.6029 52.3402 27.3105V47.2122H56.4215V35.531C58.1892 36.8507 60.3434 37.5485 62.5486 37.516C65.2532 37.516 67.8471 36.4408 69.7596 34.5269C71.6721 32.6129 72.7465 30.0171 72.7465 27.3105C72.7465 24.6038 71.6721 22.008 69.7596 20.0941C67.8471 18.1802 65.2532 17.105 62.5486 17.105ZM66.8271 31.6546C65.6813 32.7931 64.1321 33.432 62.5174 33.432C60.9027 33.432 59.3535 32.7931 58.2077 31.6546C57.0649 30.5106 56.423 28.9592 56.423 27.3417C56.423 25.7241 57.0649 24.1727 58.2077 23.0287C58.7697 22.445 59.4424 21.9791 60.1864 21.6585C60.9304 21.3379 61.7308 21.1689 62.5409 21.1613C63.3509 21.1538 64.1543 21.3079 64.9041 21.6146C65.654 21.9214 66.3352 22.3746 66.908 22.9478C67.4808 23.5211 67.9337 24.2028 68.2402 24.9532C68.5467 25.7036 68.7007 26.5076 68.6932 27.3182C68.6856 28.1288 68.5167 28.9298 68.1963 29.6744C67.8759 30.4189 67.4105 31.0921 66.8271 31.6546Z" fill="#1C2B32"/>
<path d="M85.8312 37.5161C88.2128 37.521 90.5206 36.6898 92.3529 35.1674L89.7567 32.0496C88.6635 32.984 87.2688 33.4898 85.8312 33.4734C84.5596 33.481 83.317 33.093 82.2752 32.3632C81.2334 31.6334 80.4439 30.5978 80.0157 29.3995H96.0292V27.321C96.0395 25.2879 95.4457 23.2976 94.3234 21.6028C93.2011 19.908 91.6008 18.5853 89.7258 17.8025C87.8508 17.0197 85.7856 16.8122 83.7925 17.2063C81.7994 17.6004 79.9683 18.5784 78.5317 20.0161C77.0951 21.4537 76.1178 23.2862 75.724 25.2808C75.3301 27.2753 75.5375 29.3421 76.3197 31.2185C77.1019 33.0949 78.4237 34.6963 80.1172 35.8195C81.8108 36.9426 83.7996 37.5368 85.8312 37.5265V37.5161ZM85.8312 21.1894C87.0921 21.2066 88.318 21.6062 89.3471 22.3355C90.3762 23.0647 91.1599 24.0892 91.5948 25.2737H80.0157C80.4537 24.081 81.2454 23.0507 82.2848 22.3208C83.3241 21.5909 84.5615 21.1961 85.8312 21.1894Z" fill="#1C2B32"/>
<path d="M128.503 37.516C130.519 37.516 132.491 36.9174 134.168 35.796C135.845 34.6746 137.152 33.0808 137.924 31.216C138.696 29.3511 138.898 27.2992 138.505 25.3195C138.111 23.3398 137.14 21.5214 135.714 20.0941C134.287 18.6668 132.47 17.6949 130.492 17.3011C128.514 16.9073 126.463 17.1094 124.6 17.8818C122.737 18.6543 121.144 19.9623 120.023 21.6406C118.903 23.3189 118.305 25.292 118.305 27.3105C118.305 30.0171 119.379 32.613 121.291 34.5269C123.204 36.4408 125.798 37.516 128.503 37.516ZM124.162 23.0287C124.724 22.445 125.396 21.9791 126.14 21.6585C126.884 21.3379 127.685 21.1689 128.495 21.1613C129.305 21.1538 130.108 21.3079 130.858 21.6146C131.608 21.9214 132.289 22.3746 132.862 22.9478C133.435 23.5211 133.888 24.2028 134.194 24.9532C134.501 25.7036 134.655 26.5076 134.647 27.3182C134.64 28.1288 134.471 28.9298 134.15 29.6744C133.83 30.4189 133.364 31.0921 132.781 31.6546C131.635 32.7931 130.086 33.432 128.471 33.432C126.857 33.432 125.307 32.7931 124.162 31.6546C123.019 30.5106 122.377 28.9592 122.377 27.3417C122.377 25.7241 123.019 24.1727 124.162 23.0287Z" fill="#1C2B32"/>
<path d="M157.58 19.1419C156.064 18.0002 154.26 17.304 152.37 17.1316C150.48 16.9591 148.58 17.3172 146.882 18.1655C145.184 19.0139 143.757 20.3191 142.759 21.9344C141.761 23.5498 141.233 25.4115 141.234 27.3104C141.319 29.9621 142.431 32.4769 144.335 34.3227C146.239 36.1685 148.786 37.2005 151.438 37.2005C154.089 37.2005 156.636 36.1685 158.54 34.3227C160.444 32.4769 161.556 29.9621 161.641 27.3104V7.40869H157.559L157.58 19.1419ZM155.773 31.6545C154.627 32.7931 153.078 33.432 151.463 33.432C149.849 33.432 148.3 32.7931 147.154 31.6545C146.011 30.5105 145.369 28.9592 145.369 27.3416C145.369 25.7241 146.011 24.1727 147.154 23.0287C147.716 22.4449 148.388 21.9791 149.133 21.6585C149.877 21.3378 150.677 21.1688 151.487 21.1613C152.297 21.1538 153.1 21.3079 153.85 21.6146C154.6 21.9214 155.281 22.3746 155.854 22.9478C156.427 23.521 156.88 24.2027 157.186 24.9531C157.493 25.7035 157.647 26.5075 157.639 27.3181C157.632 28.1288 157.463 28.9298 157.142 29.6743C156.822 30.4189 156.357 31.0921 155.773 31.6545Z" fill="#1C2B32"/>
<path d="M174.466 37.5153C176.847 37.5166 179.154 36.6859 180.988 35.1666L178.392 32.0488C177.293 32.9681 175.898 33.459 174.466 33.431C173.195 33.4386 171.952 33.0506 170.91 32.3208C169.868 31.591 169.079 30.5554 168.651 29.3571H184.664V27.2786C184.668 25.2468 184.069 23.2595 182.943 21.5688C181.817 19.8782 180.215 18.5603 178.339 17.7823C176.463 17.0043 174.399 16.8012 172.408 17.1989C170.417 17.5965 168.589 18.577 167.156 20.0159C165.722 21.4548 164.748 23.2873 164.357 25.2811C163.965 27.2748 164.174 29.3399 164.958 31.2145C165.741 33.0891 167.063 34.6887 168.755 35.8105C170.448 36.9322 172.436 37.5256 174.466 37.5153ZM174.466 21.1886C175.727 21.2058 176.953 21.6054 177.982 22.3346C179.011 23.0639 179.795 24.0884 180.23 25.2728H168.609C169.05 24.0735 169.848 23.0386 170.895 22.3081C171.943 21.5776 173.189 21.1868 174.466 21.1886Z" fill="#1C2B32"/>
<path d="M113.102 32.0282L115.73 35.146C114.243 36.4095 112.426 37.2208 110.494 37.4842C108.561 37.7477 106.594 37.4521 104.824 36.6325C103.053 35.813 101.555 34.5035 100.504 32.859C99.4539 31.2144 98.8958 29.3033 98.8958 27.3515C98.8958 25.3997 99.4539 23.4887 100.504 21.8441C101.555 20.1995 103.053 18.8901 104.824 18.0705C106.594 17.2509 108.561 16.9554 110.494 17.2188C112.426 17.4822 114.243 18.2936 115.73 19.5571L113.092 22.6749C112.337 22.0357 111.439 21.5883 110.474 21.3706C109.509 21.1529 108.506 21.1714 107.55 21.4244C106.593 21.6775 105.712 22.1577 104.981 22.8243C104.25 23.4909 103.69 24.3241 103.35 25.2534C103.009 26.1826 102.898 27.1803 103.025 28.1619C103.151 29.1435 103.513 30.08 104.079 30.8918C104.645 31.7037 105.398 32.3669 106.275 32.8253C107.151 33.2836 108.125 33.5236 109.114 33.5247C110.581 33.5247 111.997 32.9931 113.102 32.0282Z" fill="#1C2B32"/>
</svg>
